<?xml version="1.0" encoding="utf-8"?>
<!-- Generator: Adobe Illustrator 27.0.0, SVG Export Plug-In . SVG Version: 6.00 Build 0)  -->
<svg version="1.1" id="Layer_1" xmlns="http://www.w3.org/2000/svg" xmlns:xlink="http://www.w3.org/1999/xlink" x="0px" y="0px"
	 viewBox="0 0 777.4 775.4" style="enable-background:new 0 0 777.4 775.4;" xml:space="preserve">
<style type="text/css">
	.st0{fill:none;stroke:#000000;stroke-width:14;stroke-miterlimit:10;}
</style>
<path fill="#000" d="M515.4,552.6c26.8-34.3,22.2-84.2-13.6-112.3c-34.3-26.8-85.4-20.7-112.3,13.6c-26.8,34.3-22.2,84.2,13.6,112.3
	C437.5,592.8,488.6,586.6,515.4,552.6z M589.8,234.6l-46.6,52.5L493,247.9L368.4,407.7c-2.5-1.6-9.8-4.9-10.5-5.8
	c-26.6-12.4-62.3-11.2-88.2,2.1L0,554.5v199.9l119.4-58.3c53.7,25.2,115,18.9,164.5-11.7l116.6,91l34.8-44.8l27.5,24.3l314.6-353.2
	L589.8,234.6z M429.6,703.7c-22.6-11.7-50.6-8-69.1,9.6l-92.9-72.8c-20.3,16.3-45,25-70.3,25c-11.4,0-22.6-1.9-33.6-5.2
	c-5.6-1.9-8.6-7.7-7-13.3c1.9-5.6,7.7-8.6,13.3-7c27.5,8.6,57.4,3.7,80.5-13l0,0c5.8-4.4,12.1-9.6,18.5-16.6l28.4-33.6l82.1,64.4
	c14.2,9.8,30.8,7.4,40.1-3.7c9.8-14.2,7.4-31.2-3.7-40.1L268.5,478.6c-4.4-3.5-4.9-9.8-1.6-14.2c3.5-4.4,9.8-4.9,14.2-1.6l45.3,36.4
	l142.7-183.5c21.9,11.4,48.8,8,67-8.4l86.1,67c-11.7,22.6-7.7,50.2,9.8,68.8L429.6,703.7z M475.7,678.6L691,402.1l-124.3-96.8
	c19.8,8.6,43.2,5.8,60.4-7.7l81.4,72.5c-13,21.7-11.2,49.7,5.2,69.1L494.5,685.6C488.6,682.6,482.5,680,475.7,678.6z M527.9,503.2
	c0,41-33.3,74.3-74.3,74.3s-74.3-33.3-74.3-74.3s33.3-74.3,74.3-74.3S527.9,462.2,527.9,503.2z"/>
<g>
	
		<ellipse transform="matrix(0.7071 -0.7071 0.7071 0.7071 -224.2014 468.7299)" class="st0" cx="453.7" cy="505" rx="74.4" ry="74.4"/>
	<path d="M459.2,520.4c-2.4,0.7-5,0.1-6.8-1.5l-36.5-32.7c-2.9-2.6-3-7.1-0.5-9.9s7.1-3,9.9-0.5l27.6,24.8l9-38.2
		c0.9-3.7,4.8-6.1,8.5-5.1c3.7,0.9,6.1,4.8,5.1,8.5l-11.8,49.6C463.7,516.6,461.7,519.6,459.2,520.4z"/>
</g>
</svg>
