<svg width="162" height="116" viewBox="0 0 162 116" fill="none" xmlns="http://www.w3.org/2000/svg">
<g id="businessBankingIcon">
<g id="Shop">
<g id="Group 1000005020">
<g id="Group 1000004969">
<g id="Group 1000004968">
<rect id="Rectangle 485" x="15" y="34.1223" width="132" height="81" fill="url(#paint0_linear_19_857)"/>
<rect id="Rectangle 486" x="23" y="44.1223" width="43" height="71" fill="#FFE8FF"/>
<g id="Rectangle 488" style="mix-blend-mode:multiply">
<rect x="83" y="44" width="46" height="44" fill="#0E0E0E" fill-opacity="0.75"/>
</g>
<rect id="Rectangle 489" x="83" y="44" width="46" height="44" fill="#FFE8FF"/>
<circle id="Ellipse 117" cx="29.5" cy="79.5" r="2.5" fill="url(#paint1_linear_19_857)"/>
</g>
<path id="Union" fill-rule="evenodd" clip-rule="evenodd" d="M8 0.122345H154.5L161.584 43.5679C161.854 44.3701 162 45.2291 162 46.1223C162 50.5406 158.418 54.1223 154 54.1223C149.582 54.1223 146 50.5406 146 46.1223C146 50.5406 142.418 54.1223 138 54.1223C133.582 54.1223 130 50.5406 130 46.1223C130 50.5406 126.194 54.1223 121.5 54.1223C116.806 54.1223 113 50.5406 113 46.1223C113 50.5406 109.418 54.1223 105 54.1223C100.582 54.1223 97 50.5406 97 46.1223C97 50.5406 93.4183 54.1223 89 54.1223C84.5817 54.1223 81 50.5406 81 46.1223C81 50.5406 77.4183 54.1223 73 54.1223C68.5817 54.1223 65 50.5406 65 46.1223C65 50.5406 61.4183 54.1223 57 54.1223C52.5817 54.1223 49 50.5406 49 46.1223C49 50.5406 45.1944 54.1223 40.5 54.1223C35.8056 54.1223 32 50.5406 32 46.1223C32 50.5406 28.4183 54.1223 24 54.1223C19.5817 54.1223 16 50.5406 16 46.1223C16 50.5406 12.4183 54.1223 8 54.1223C3.58172 54.1223 0 50.5406 0 46.1223C0 45.1698 0.166466 44.2562 0.471894 43.409L8 0.122345Z" fill="url(#paint2_linear_19_857)"/>
</g>
<path id="Line 2454 (Stroke)" fill-rule="evenodd" clip-rule="evenodd" d="M19.4994 0.122367L16.513 33.5028L18.4961 0.153204L19.4994 0.122367Z" fill="#741B66"/>
<path id="Line 2454 (Stroke)_2" fill-rule="evenodd" clip-rule="evenodd" d="M50.9483 0.0220354L50.389 33.5311L49.9498 0.125509L50.9483 0.0220354Z" fill="#741B66"/>
<path id="Line 2454 (Stroke)_3" fill-rule="evenodd" clip-rule="evenodd" d="M81.7373 0.0220354L81.1781 33.5311L80.7389 0.125509L81.7373 0.0220354Z" fill="#741B66"/>
<path id="Line 2454 (Stroke)_4" fill-rule="evenodd" clip-rule="evenodd" d="M111.394 0.0220354L111.953 33.5311L112.392 0.125509L111.394 0.0220354Z" fill="#741B66"/>
<path id="Line 2454 (Stroke)_5" fill-rule="evenodd" clip-rule="evenodd" d="M142.182 0.216483L145.169 33.5969L143.186 0.24732L142.182 0.216483Z" fill="#741B66"/>
</g>
<circle id="Ellipse 184" cx="44.333" cy="60" r="1" fill="#4D0542"/>
</g>
<g id="Open">
<path id="Polygon 22" d="M44.4158 58.5774L52.3693 63.8758C52.987 64.2873 52.6957 65.25 51.9535 65.25H36.0465C35.3043 65.25 35.013 64.2873 35.6307 63.8758L43.5842 58.5774C43.836 58.4096 44.164 58.4096 44.4158 58.5774Z" stroke="#8392AE" stroke-width="0.5"/>
<rect id="Rectangle 4308" x="32" y="64" width="25" height="9" fill="url(#paint3_linear_19_857)"/>
<path id="Open_2" d="M39.2148 71.0586C38.834 71.0586 38.4912 70.9697 38.1865 70.792C37.8838 70.6143 37.6445 70.3584 37.4688 70.0244C37.2949 69.6904 37.208 69.2891 37.208 68.8203C37.208 68.3496 37.2949 67.9473 37.4688 67.6133C37.6445 67.2773 37.8838 67.0205 38.1865 66.8428C38.4912 66.665 38.834 66.5762 39.2148 66.5762C39.5977 66.5762 39.9395 66.665 40.2402 66.8428C40.541 67.0205 40.7793 67.2773 40.9551 67.6133C41.1309 67.9473 41.2188 68.3496 41.2188 68.8203C41.2188 69.2891 41.1309 69.6904 40.9551 70.0244C40.7793 70.3584 40.541 70.6143 40.2402 70.792C39.9395 70.9697 39.5977 71.0586 39.2148 71.0586ZM39.2148 70.3496C39.4512 70.3496 39.6602 70.291 39.8418 70.1738C40.0234 70.0566 40.166 69.8848 40.2695 69.6582C40.373 69.4297 40.4248 69.1504 40.4248 68.8203C40.4248 68.4883 40.373 68.208 40.2695 67.9795C40.166 67.751 40.0234 67.5781 39.8418 67.4609C39.6602 67.3438 39.4512 67.2852 39.2148 67.2852C38.9785 67.2852 38.7686 67.3438 38.585 67.4609C38.4033 67.5781 38.2607 67.751 38.1572 67.9795C38.0537 68.208 38.002 68.4883 38.002 68.8203C38.002 69.1504 38.0537 69.4297 38.1572 69.6582C38.2607 69.8848 38.4033 70.0566 38.585 70.1738C38.7686 70.291 38.9785 70.3496 39.2148 70.3496ZM41.648 72.2246V67.7246H42.4039V68.2666H42.4507C42.4898 68.1885 42.5455 68.1045 42.6177 68.0146C42.69 67.9229 42.7877 67.8447 42.9107 67.7803C43.0357 67.7158 43.1949 67.6836 43.3882 67.6836C43.6402 67.6836 43.8677 67.748 44.0709 67.877C44.274 68.0059 44.4351 68.1953 44.5543 68.4453C44.6754 68.6953 44.7359 69.0029 44.7359 69.3682C44.7359 69.7275 44.6773 70.0332 44.5601 70.2852C44.4429 70.5371 44.2818 70.7295 44.0767 70.8623C43.8736 70.9932 43.6431 71.0586 43.3853 71.0586C43.1998 71.0586 43.0445 71.0273 42.9195 70.9648C42.7964 70.9004 42.6968 70.8242 42.6207 70.7363C42.5464 70.6465 42.4898 70.5615 42.4507 70.4814H42.4185V72.2246H41.648ZM43.1744 70.4258C43.3443 70.4258 43.4859 70.3799 43.5992 70.2881C43.7144 70.1963 43.8013 70.0703 43.8599 69.9102C43.9185 69.75 43.9478 69.5684 43.9478 69.3652C43.9478 69.1621 43.9185 68.9814 43.8599 68.8232C43.8013 68.665 43.7154 68.541 43.6021 68.4512C43.4888 68.3613 43.3463 68.3164 43.1744 68.3164C43.0084 68.3164 42.8677 68.3594 42.7525 68.4453C42.6392 68.5312 42.5523 68.6533 42.4918 68.8115C42.4332 68.9678 42.4039 69.1523 42.4039 69.3652C42.4039 69.5762 42.4332 69.7617 42.4918 69.9219C42.5523 70.0801 42.6402 70.2041 42.7554 70.2939C42.8707 70.3818 43.0103 70.4258 43.1744 70.4258ZM46.5538 71.0645C46.2257 71.0645 45.9425 70.9961 45.7042 70.8594C45.4659 70.7207 45.2823 70.5254 45.1534 70.2734C45.0265 70.0215 44.963 69.7246 44.963 69.3828C44.963 69.0449 45.0265 68.749 45.1534 68.4951C45.2804 68.2393 45.4591 68.04 45.6896 67.8975C45.92 67.7549 46.1915 67.6836 46.504 67.6836C46.7052 67.6836 46.8956 67.7158 47.0753 67.7803C47.257 67.8447 47.4171 67.9443 47.5558 68.0791C47.6964 68.2139 47.8068 68.3857 47.8868 68.5947C47.9669 68.8018 48.007 69.0488 48.007 69.3359V69.5762H45.3234V69.0576H47.6232L47.2628 69.21C47.2628 69.0244 47.2345 68.8633 47.1779 68.7266C47.1212 68.5879 47.0372 68.4795 46.9259 68.4014C46.8146 68.3232 46.6759 68.2842 46.5099 68.2842C46.3439 68.2842 46.2023 68.3232 46.0851 68.4014C45.9679 68.4795 45.879 68.585 45.8185 68.7178C45.7579 68.8486 45.7277 68.9951 45.7277 69.1572V69.5176C45.7277 69.7168 45.7618 69.8877 45.8302 70.0303C45.9005 70.1709 45.9982 70.2783 46.1232 70.3525C46.2501 70.4268 46.3976 70.4639 46.5655 70.4639C46.6749 70.4639 46.7745 70.4482 46.8644 70.417C46.9562 70.3857 47.0343 70.3389 47.0988 70.2764C47.1652 70.2119 47.2159 70.1328 47.2511 70.0391L47.9718 70.124C47.9249 70.3135 47.838 70.4795 47.7111 70.6221C47.5861 70.7627 47.4249 70.8721 47.2277 70.9502C47.0323 71.0264 46.8077 71.0645 46.5538 71.0645ZM49.1364 69.084V71H48.3659V67.7246H49.1218V68.2842H49.1598C49.2341 68.1006 49.3503 67.9551 49.5085 67.8477C49.6686 67.7383 49.8718 67.6836 50.1179 67.6836C50.3444 67.6836 50.5417 67.7314 50.7096 67.8271C50.8776 67.9229 51.0075 68.0635 51.0993 68.249C51.193 68.4326 51.2399 68.6553 51.2399 68.917V71H50.4694V69.0371C50.4694 68.8184 50.4128 68.6475 50.2995 68.5244C50.1862 68.3994 50.03 68.3369 49.8307 68.3369C49.696 68.3369 49.5759 68.3662 49.4704 68.4248C49.3669 68.4834 49.2848 68.5684 49.2243 68.6797C49.1657 68.7891 49.1364 68.9238 49.1364 69.084Z" fill="white"/>
</g>
</g>
<defs>
<linearGradient id="paint0_linear_19_857" x1="81" y1="34.1223" x2="81" y2="115.122" gradientUnits="userSpaceOnUse">
<stop stop-color="#981D87"/>
<stop offset="1" stop-color="#AF469F"/>
</linearGradient>
<linearGradient id="paint1_linear_19_857" x1="27" y1="77.586" x2="31.0625" y2="82" gradientUnits="userSpaceOnUse">
<stop stop-color="#FFBAF5"/>
<stop offset="0.986917" stop-color="#D73BC2"/>
</linearGradient>
<linearGradient id="paint2_linear_19_857" x1="2.36566e-06" y1="6.45047" x2="24.6894" y2="86.9285" gradientUnits="userSpaceOnUse">
<stop stop-color="#FFBAF5"/>
<stop offset="0.986917" stop-color="#D73BC2"/>
</linearGradient>
<linearGradient id="paint3_linear_19_857" x1="32" y1="65.0547" x2="36.3814" y2="78.2784" gradientUnits="userSpaceOnUse">
<stop stop-color="#FFBAF5"/>
<stop offset="0.986917" stop-color="#D73BC2"/>
</linearGradient>
</defs>
</svg>
